ACDC Let There Be Rock Mkv 1080p Dts



General 
Unique ID : 196118230442258429662533630466073761288 (0x938AFF4CC09B2AE0BDF3EF34245F1608) 
Complete name : C:UsersMARCVideosNew folderACDC Let There Be Rock Mkv 1080p Dts.mkv 
Format : Matroska 
Format version : Version 2 
File size : 3.50 GiB 
Duration : 1h 37mn 
Overall bit rate mode : Variable 
Overall bit rate : 5 117 Kbps 
Movie name : video 
Encoded date : UTC 2012-10-12 08:58:19 
Writing application : mkvmerge v5.7.0 ('The Whirlwind') built on Jul 8 2012 20:08:51 
Writing library : libebml v1.2.3 + libmatroska v1.3.0 

Video 
ID : 1 
Format : AVC 
Format/Info : Advanced Video Codec 
Format profile : High@L4.0 
Format settings, CABAC : Yes 
Format settings, ReFrames : 3 frames 
Codec ID : V_MPEG4/ISO/AVC 
Duration : 1h 37mn 
Bit rate mode : Variable 
Bit rate : 3 505 Kbps 
Maximum bit rate : 25.0 Mbps 
Width : 1 920 pixels 
Height : 1 080 pixels 
Display aspect ratio : 16:9 
Frame rate mode : Constant 
Frame rate : 23.976 fps 
Color space : YUV 
Chroma subsampling : 4:2:0 
Bit depth : 8 bits 
Scan type : Progressive 
Bits/(Pixel*Frame) : 0.071 
Stream size : 2.40 GiB (69%) 
Writing library : x264 core 125 r2208 d9d2288 
Encoding settings : cabac=1 / ref=3 / deblock=1:0:0 / analyse=0x3:0x113 / me=hex / subme=7 / psy=1 / psy_rd=1.00:0.00 / mixed_ref=1 / me_range=16 / chroma_me=1 / trellis=1 / 8x8dct=1 / cqm=0 / deadzone=21,11 / fast_pskip=1 / chroma_qp_offset=-2 / threads=12 / lookahead_threads=2 / sliced_threads=0 / nr=0 / decimate=1 / interlaced=0 / bluray_compat=0 / constrained_intra=0 / bframes=3 / b_pyramid=0 / b_adapt=1 / b_bias=0 / direct=1 / weightb=1 / open_gop=0 / weightp=2 / keyint=240 / keyint_min=24 / scenecut=40 / intra_refresh=0 / rc_lookahead=40 / rc=crf / mbtree=1 / crf=24.0 / qcomp=0.60 / qpmin=0 / qpmax=69 / qpstep=4 / vbv_maxrate=25000 / vbv_bufsize=25000 / crf_max=0.0 / nal_hrd=vbr / ip_ratio=1.40 / aq=1:1.00 
Default : Yes 
Forced : No 

Audio 
ID : 2 
Format : DTS 
Format/Info : Digital Theater Systems 
Codec ID : A_DTS 
Duration : 1h 37mn 
Bit rate mode : Constant 
Bit rate : 1 510 Kbps 
Channel(s) : 6 channels 
Channel positions : Front: L C R, Side: L R, LFE 
Sampling rate : 48.0 KHz 
Bit depth : 24 bits 
Compression mode : Lossy 
Stream size : 1.03 GiB (30%) 
Language : English 
Default : Yes 
Forced : No 

Menu 
00:00:00.000 : en:00:00:00.000 
00:00:19.019 : en:00:00:19.019 
00:04:38.862 : en:00:04:38.862 
00:08:33.638 : en:00:08:33.638 
00:09:43.625 : en:00:09:43.625 
00:16:04.797 : en:00:16:04.797 
00:19:40.179 : en:00:19:40.179 
00:23:50.554 : en:00:23:50.554 
00:29:45.033 : en:00:29:45.033 
00:35:17.365 : en:00:35:17.365 
00:48:15.518 : en:00:48:15.518 
00:53:54.231 : en:00:53:54.231 
00:56:12.286 : en:00:56:12.286 
00:59:22.350 : en:00:59:22.350 
01:02:48.974 : en:01:02:48.974 
01:09:02.597 : en:01:09:02.597 
01:13:37.371 : en:01:13:37.371 
01:18:41.550 : en:01:18:41.550 
01:28:01.568 : en:01:28:01.568 
01:35:12.707 : en:01:35:12.707 
